<svg width="2048" height="768" viewBox="0 0 2048 768" fill="none" xmlns="http://www.w3.org/2000/svg">
<mask id="mask0_74_193" style="mask-type:alpha" maskUnits="userSpaceOnUse" x="0" y="0" width="2048" height="768">
<rect width="2048" height="768" transform="matrix(1 0 0 -1 0 768)" fill="url(#paint0_linear_74_193)"/>
</mask>
<g mask="url(#mask0_74_193)">
<rect width="256" height="256" stroke="#D9D9D9" stroke-dasharray="16 16"/>
<rect x="256" width="256" height="256" stroke="#D9D9D9" stroke-dasharray="16 16"/>
<rect x="512" width="256" height="256" stroke="#D9D9D9" stroke-dasharray="16 16"/>
<rect x="768" width="256" height="256" stroke="#D9D9D9" stroke-dasharray="16 16"/>
<rect x="1024" width="256" height="256" stroke="#D9D9D9" stroke-dasharray="16 16"/>
<rect x="1280" width="256" height="256" stroke="#D9D9D9" stroke-dasharray="16 16"/>
<rect x="1536" width="256" height="256" stroke="#D9D9D9" stroke-dasharray="16 16"/>
<rect x="1792" width="256" height="256" stroke="#D9D9D9" stroke-dasharray="16 16"/>
<rect y="256" width="256" height="256" stroke="#D9D9D9" stroke-dasharray="16 16"/>
<rect x="256" y="256" width="256" height="256" stroke="#D9D9D9" stroke-dasharray="16 16"/>
<rect x="512" y="256" width="256" height="256" stroke="#D9D9D9" stroke-dasharray="16 16"/>
<rect x="768" y="256" width="256" height="256" stroke="#D9D9D9" stroke-dasharray="16 16"/>
<rect x="1024" y="256" width="256" height="256" stroke="#D9D9D9" stroke-dasharray="16 16"/>
<rect x="1280" y="256" width="256" height="256" stroke="#D9D9D9" stroke-dasharray="16 16"/>
<rect x="1536" y="256" width="256" height="256" stroke="#D9D9D9" stroke-dasharray="16 16"/>
<rect x="1792" y="256" width="256" height="256" stroke="#D9D9D9" stroke-dasharray="16 16"/>
<rect y="512" width="256" height="256" stroke="#D9D9D9" stroke-dasharray="16 16"/>
<rect x="256" y="512" width="256" height="256" stroke="#D9D9D9" stroke-dasharray="16 16"/>
<rect x="512" y="512" width="256" height="256" stroke="#D9D9D9" stroke-dasharray="16 16"/>
<rect x="768" y="512" width="256" height="256" stroke="#D9D9D9" stroke-dasharray="16 16"/>
<rect x="1024" y="512" width="256" height="256" stroke="#D9D9D9" stroke-dasharray="16 16"/>
<rect x="1280" y="512" width="256" height="256" stroke="#D9D9D9" stroke-dasharray="16 16"/>
<rect x="1536" y="512" width="256" height="256" stroke="#D9D9D9" stroke-dasharray="16 16"/>
<rect x="1792" y="512" width="256" height="256" stroke="#D9D9D9" stroke-dasharray="16 16"/>
</g>
<defs>
<linearGradient id="paint0_linear_74_193" x1="1024" y1="0" x2="1024" y2="768" gradientUnits="userSpaceOnUse">
<stop stop-color="white"/>
<stop offset="1" stop-color="white" stop-opacity="0"/>
</linearGradient>
</defs>
</svg>
