<svg width="448" height="448" viewBox="0 0 448 448" fill="none" xmlns="http://www.w3.org/2000/svg">
<circle cx="64" cy="64" r="64" fill="#FCFAFA"/>
<path d="M112.461 64C112.461 63.4477 112.013 63 111.461 63C110.908 63 110.461 63.4477 110.461 64H112.461ZM110.461 64C110.461 89.6595 89.6595 110.461 64 110.461V112.461C90.7641 112.461 112.461 90.7641 112.461 64H110.461ZM64 110.461C38.3405 110.461 17.5393 89.6595 17.5393 64H15.5393C15.5393 90.7641 37.2359 112.461 64 112.461V110.461Z" fill="#143651"/>
<circle cx="224" cy="64" r="63" stroke="#FCFAFA" stroke-width="2"/>
<path d="M272.461 64C272.461 63.4477 272.013 63 271.461 63C270.908 63 270.461 63.4477 270.461 64H272.461ZM270.461 64C270.461 89.6595 249.66 110.461 224 110.461V112.461C250.764 112.461 272.461 90.7641 272.461 64H270.461ZM224 110.461C198.34 110.461 177.539 89.6595 177.539 64H175.539C175.539 90.7641 197.236 112.461 224 112.461V110.461Z" fill="#FCFAFA"/>
<circle cx="384" cy="64" r="64" fill="#FCFAFA"/>
<path d="M432.461 64C432.461 63.4477 432.013 63 431.461 63C430.908 63 430.461 63.4477 430.461 64H432.461ZM430.461 64C430.461 89.6595 409.66 110.461 384 110.461V112.461C410.764 112.461 432.461 90.7641 432.461 64H430.461ZM384 110.461C358.34 110.461 337.539 89.6595 337.539 64H335.539C335.539 90.7641 357.236 112.461 384 112.461V110.461Z" fill="#143651"/>
<circle cx="64" cy="224" r="63" stroke="#FCFAFA" stroke-width="2"/>
<path d="M112.461 224C112.461 223.448 112.013 223 111.461 223C110.908 223 110.461 223.448 110.461 224H112.461ZM110.461 224C110.461 249.66 89.6595 270.461 64 270.461V272.461C90.7641 272.461 112.461 250.764 112.461 224H110.461ZM64 270.461C38.3405 270.461 17.5393 249.66 17.5393 224H15.5393C15.5393 250.764 37.2359 272.461 64 272.461V270.461Z" fill="#FCFAFA"/>
<circle cx="224" cy="224" r="63" stroke="#FCFAFA" stroke-width="2"/>
<path d="M272.461 224C272.461 223.448 272.013 223 271.461 223C270.908 223 270.461 223.448 270.461 224H272.461ZM270.461 224C270.461 249.66 249.66 270.461 224 270.461V272.461C250.764 272.461 272.461 250.764 272.461 224H270.461ZM224 270.461C198.34 270.461 177.539 249.66 177.539 224H175.539C175.539 250.764 197.236 272.461 224 272.461V270.461Z" fill="#FCFAFA"/>
<circle cx="384" cy="224" r="63" stroke="#FCFAFA" stroke-width="2"/>
<path d="M432.461 224C432.461 223.448 432.013 223 431.461 223C430.908 223 430.461 223.448 430.461 224H432.461ZM430.461 224C430.461 249.66 409.66 270.461 384 270.461V272.461C410.764 272.461 432.461 250.764 432.461 224H430.461ZM384 270.461C358.34 270.461 337.539 249.66 337.539 224H335.539C335.539 250.764 357.236 272.461 384 272.461V270.461Z" fill="#FCFAFA"/>
<circle cx="64" cy="384" r="63" stroke="#FCFAFA" stroke-width="2"/>
<path d="M112.461 384C112.461 383.448 112.013 383 111.461 383C110.908 383 110.461 383.448 110.461 384H112.461ZM110.461 384C110.461 409.66 89.6595 430.461 64 430.461V432.461C90.7641 432.461 112.461 410.764 112.461 384H110.461ZM64 430.461C38.3405 430.461 17.5393 409.66 17.5393 384H15.5393C15.5393 410.764 37.2359 432.461 64 432.461V430.461Z" fill="#FCFAFA"/>
<circle cx="224" cy="384" r="64" fill="#FCFAFA"/>
<path d="M272.461 384C272.461 383.448 272.013 383 271.461 383C270.908 383 270.461 383.448 270.461 384H272.461ZM270.461 384C270.461 409.66 249.66 430.461 224 430.461V432.461C250.764 432.461 272.461 410.764 272.461 384H270.461ZM224 430.461C198.34 430.461 177.539 409.66 177.539 384H175.539C175.539 410.764 197.236 432.461 224 432.461V430.461Z" fill="#143651"/>
<circle cx="384" cy="384" r="63" stroke="#FCFAFA" stroke-width="2"/>
<path d="M432.461 384C432.461 383.448 432.013 383 431.461 383C430.908 383 430.461 383.448 430.461 384H432.461ZM430.461 384C430.461 409.66 409.66 430.461 384 430.461V432.461C410.764 432.461 432.461 410.764 432.461 384H430.461ZM384 430.461C358.34 430.461 337.539 409.66 337.539 384H335.539C335.539 410.764 357.236 432.461 384 432.461V430.461Z" fill="#FCFAFA"/>
</svg>
